<svg width="19" height="19" viewBox="0 0 19 19" fill="none" xmlns="http://www.w3.org/2000/svg">
<path fill-rule="evenodd" clip-rule="evenodd" d="M9.5 0.791656C4.48242 0.791656 0 4.13724 0 8.71386C0 10.3368 0.585042 11.9304 1.62054 13.167L0.04275 18.2083L5.54167 15.8333C6.89146 16.1809 8.18108 16.3408 9.39233 16.3408C15.0718 16.3408 19 12.8266 19 8.71386C19 4.1127 14.4867 0.791656 9.5 0.791656V0.791656ZM9.5 1.58332C14.3015 1.58332 18.2083 4.78245 18.2083 8.71386C18.2083 12.6104 14.4186 15.5491 9.39233 15.5491C7.90321 15.5491 6.69988 15.3124 5.47675 14.9989L1.31417 16.7968L2.50563 12.9904C1.47013 11.7523 0.791667 10.5141 0.791667 8.71386C0.791667 4.78245 4.69854 1.58332 9.5 1.58332V1.58332ZM5.54167 7.52082C6.19717 7.52082 6.72917 8.05282 6.72917 8.70832C6.72917 9.36382 6.19717 9.89582 5.54167 9.89582C4.88617 9.89582 4.35417 9.36382 4.35417 8.70832C4.35417 8.05282 4.88617 7.52082 5.54167 7.52082ZM9.5 7.52082C10.1555 7.52082 10.6875 8.05282 10.6875 8.70832C10.6875 9.36382 10.1555 9.89582 9.5 9.89582C8.8445 9.89582 8.3125 9.36382 8.3125 8.70832C8.3125 8.05282 8.8445 7.52082 9.5 7.52082ZM13.4583 7.52082C14.1138 7.52082 14.6458 8.05282 14.6458 8.70832C14.6458 9.36382 14.1138 9.89582 13.4583 9.89582C12.8028 9.89582 12.2708 9.36382 12.2708 8.70832C12.2708 8.05282 12.8028 7.52082 13.4583 7.52082Z" fill="#333333"/>
</svg>
