<svg width="39" height="39" viewBox="0 0 39 39" fill="none" xmlns="http://www.w3.org/2000/svg">
<circle cx="19.5" cy="19.5" r="19" fill="white" stroke="black"/>
<path d="M23.924 15.4488C23.924 18.4569 21.6273 20.8969 18.7941 20.8969C15.9609 20.8969 13.6642 18.4569 13.6642 15.4488C13.6642 12.4392 15.9609 10 18.7941 10C21.6273 10 23.924 12.4392 23.924 15.4488V15.4488ZM22.7529 21.0369C21.6493 21.9219 20.2803 22.4534 18.7941 22.4534C17.3064 22.4534 15.9368 21.9203 14.8316 21.0354C11.8475 22.4309 10 26.7761 10 28.679H27.5882C27.5882 26.7932 25.6828 22.448 22.7529 21.0369V21.0369Z" fill="#A7A4A4"/>
</svg>
