<svg width="202" height="47" viewBox="0 0 202 47" fill="none" xmlns="http://www.w3.org/2000/svg">
<path d="M53.1617 37.266C51.4137 37.266 49.843 36.962 48.4497 36.354C47.0817 35.7207 46.005 34.8593 45.2197 33.77C44.4344 32.6553 44.029 31.376 44.0037 29.932H47.6897C47.8164 31.1733 48.323 32.2247 49.2097 33.086C50.1217 33.922 51.439 34.34 53.1617 34.34C54.8084 34.34 56.1004 33.9347 57.0377 33.124C58.0004 32.288 58.4817 31.224 58.4817 29.932C58.4817 28.9187 58.203 28.0953 57.6457 27.462C57.0884 26.8287 56.3917 26.3473 55.5557 26.018C54.7197 25.6887 53.5924 25.334 52.1737 24.954C50.4257 24.498 49.0197 24.042 47.9557 23.586C46.917 23.13 46.0177 22.4207 45.2577 21.458C44.523 20.47 44.1557 19.1527 44.1557 17.506C44.1557 16.062 44.523 14.7827 45.2577 13.668C45.9924 12.5533 47.0184 11.692 48.3357 11.084C49.6784 10.476 51.211 10.172 52.9337 10.172C55.4164 10.172 57.443 10.7927 59.0137 12.034C60.6097 13.2753 61.509 14.922 61.7117 16.974H57.9117C57.785 15.9607 57.253 15.074 56.3157 14.314C55.3784 13.5287 54.137 13.136 52.5917 13.136C51.1477 13.136 49.9697 13.516 49.0577 14.276C48.1457 15.0107 47.6897 16.0493 47.6897 17.392C47.6897 18.3547 47.9557 19.14 48.4877 19.748C49.045 20.356 49.7164 20.8247 50.5017 21.154C51.3124 21.458 52.4397 21.8127 53.8837 22.218C55.6317 22.6993 57.0377 23.1807 58.1017 23.662C59.1657 24.118 60.0777 24.84 60.8377 25.828C61.5977 26.7907 61.9777 28.108 61.9777 29.78C61.9777 31.072 61.6357 32.288 60.9517 33.428C60.2677 34.568 59.2544 35.4927 57.9117 36.202C56.569 36.9113 54.9857 37.266 53.1617 37.266ZM71.2844 19.026V31.3C71.2844 32.3133 71.4998 33.0353 71.9304 33.466C72.3611 33.8713 73.1084 34.074 74.1724 34.074H76.7184V37H73.6024C71.6771 37 70.2331 36.5567 69.2704 35.67C68.3078 34.7833 67.8264 33.3267 67.8264 31.3V19.026H65.1284V16.176H67.8264V10.932H71.2844V16.176H76.7184V19.026H71.2844ZM79.6162 26.512C79.6162 24.384 80.0469 22.522 80.9082 20.926C81.7696 19.3047 82.9476 18.0507 84.4422 17.164C85.9622 16.2773 87.6469 15.834 89.4962 15.834C91.3202 15.834 92.9036 16.2267 94.2462 17.012C95.5889 17.7973 96.5896 18.7853 97.2482 19.976V16.176H100.744V37H97.2482V33.124C96.5642 34.34 95.5382 35.3533 94.1702 36.164C92.8276 36.9493 91.2569 37.342 89.4582 37.342C87.6089 37.342 85.9369 36.886 84.4422 35.974C82.9476 35.062 81.7696 33.7827 80.9082 32.136C80.0469 30.4893 79.6162 28.6147 79.6162 26.512ZM97.2482 26.55C97.2482 24.9793 96.9316 23.6113 96.2982 22.446C95.6649 21.2807 94.8036 20.394 93.7142 19.786C92.6502 19.1527 91.4722 18.836 90.1802 18.836C88.8882 18.836 87.7102 19.14 86.6462 19.748C85.5822 20.356 84.7336 21.2427 84.1002 22.408C83.4669 23.5733 83.1502 24.9413 83.1502 26.512C83.1502 28.108 83.4669 29.5013 84.1002 30.692C84.7336 31.8573 85.5822 32.7567 86.6462 33.39C87.7102 33.998 88.8882 34.302 90.1802 34.302C91.4722 34.302 92.6502 33.998 93.7142 33.39C94.8036 32.7567 95.6649 31.8573 96.2982 30.692C96.9316 29.5013 97.2482 28.1207 97.2482 26.55ZM105.296 26.55C105.296 24.3967 105.727 22.522 106.588 20.926C107.449 19.3047 108.64 18.0507 110.16 17.164C111.705 16.2773 113.466 15.834 115.442 15.834C118.001 15.834 120.103 16.4547 121.75 17.696C123.422 18.9373 124.524 20.66 125.056 22.864H121.332C120.977 21.5973 120.281 20.5967 119.242 19.862C118.229 19.1273 116.962 18.76 115.442 18.76C113.466 18.76 111.87 19.444 110.654 20.812C109.438 22.1547 108.83 24.0673 108.83 26.55C108.83 29.058 109.438 30.996 110.654 32.364C111.87 33.732 113.466 34.416 115.442 34.416C116.962 34.416 118.229 34.0613 119.242 33.352C120.255 32.6427 120.952 31.6293 121.332 30.312H125.056C124.499 32.44 123.384 34.15 121.712 35.442C120.04 36.7087 117.95 37.342 115.442 37.342C113.466 37.342 111.705 36.8987 110.16 36.012C108.64 35.1253 107.449 33.8713 106.588 32.25C105.727 30.6287 105.296 28.7287 105.296 26.55ZM141.298 37L133.128 27.804V37H129.67V8.88H133.128V25.41L141.146 16.176H145.972L136.168 26.55L146.01 37H141.298ZM151.013 12.794C150.354 12.794 149.797 12.566 149.341 12.11C148.885 11.654 148.657 11.0967 148.657 10.438C148.657 9.77933 148.885 9.222 149.341 8.766C149.797 8.31 150.354 8.082 151.013 8.082C151.646 8.082 152.178 8.31 152.609 8.766C153.065 9.222 153.293 9.77933 153.293 10.438C153.293 11.0967 153.065 11.654 152.609 12.11C152.178 12.566 151.646 12.794 151.013 12.794ZM152.685 16.176V37H149.227V16.176H152.685ZM177.578 25.79C177.578 26.4487 177.54 27.1453 177.464 27.88H160.82C160.947 29.932 161.643 31.5407 162.91 32.706C164.202 33.846 165.76 34.416 167.584 34.416C169.079 34.416 170.32 34.074 171.308 33.39C172.321 32.6807 173.031 31.7433 173.436 30.578H177.16C176.603 32.5793 175.488 34.2133 173.816 35.48C172.144 36.7213 170.067 37.342 167.584 37.342C165.608 37.342 163.835 36.8987 162.264 36.012C160.719 35.1253 159.503 33.8713 158.616 32.25C157.729 30.6033 157.286 28.7033 157.286 26.55C157.286 24.3967 157.717 22.5093 158.578 20.888C159.439 19.2667 160.643 18.0253 162.188 17.164C163.759 16.2773 165.557 15.834 167.584 15.834C169.56 15.834 171.308 16.2647 172.828 17.126C174.348 17.9873 175.513 19.178 176.324 20.698C177.16 22.1927 177.578 23.89 177.578 25.79ZM174.006 25.068C174.006 23.7507 173.715 22.6233 173.132 21.686C172.549 20.7233 171.751 20.0013 170.738 19.52C169.75 19.0133 168.648 18.76 167.432 18.76C165.684 18.76 164.189 19.3173 162.948 20.432C161.732 21.5467 161.035 23.092 160.858 25.068H174.006ZM201.143 25.79C201.143 26.4487 201.105 27.1453 201.029 27.88H184.385C184.511 29.932 185.208 31.5407 186.475 32.706C187.767 33.846 189.325 34.416 191.149 34.416C192.643 34.416 193.885 34.074 194.873 33.39C195.886 32.6807 196.595 31.7433 197.001 30.578H200.725C200.167 32.5793 199.053 34.2133 197.381 35.48C195.709 36.7213 193.631 37.342 191.149 37.342C189.173 37.342 187.399 36.8987 185.829 36.012C184.283 35.1253 183.067 33.8713 182.181 32.25C181.294 30.6033 180.851 28.7033 180.851 26.55C180.851 24.3967 181.281 22.5093 182.143 20.888C183.004 19.2667 184.207 18.0253 185.753 17.164C187.323 16.2773 189.122 15.834 191.149 15.834C193.125 15.834 194.873 16.2647 196.393 17.126C197.913 17.9873 199.078 19.178 199.889 20.698C200.725 22.1927 201.143 23.89 201.143 25.79ZM197.571 25.068C197.571 23.7507 197.279 22.6233 196.697 21.686C196.114 20.7233 195.316 20.0013 194.303 19.52C193.315 19.0133 192.213 18.76 190.997 18.76C189.249 18.76 187.754 19.3173 186.513 20.432C185.297 21.5467 184.6 23.092 184.423 25.068H197.571Z" fill="#484848"/>
<rect width="37.0323" height="8.40215" rx="4.20107" transform="matrix(0.853277 0.521459 -0.567975 0.823046 5.77216 1.72885)" fill="#E29578"/>
<g filter="url(#filter0_d_1442_39)">
<rect width="37.0323" height="8.40215" rx="4.20107" transform="matrix(0.853277 -0.521459 0.567975 0.823046 1.22302 35.802)" fill="#D28B70"/>
</g>
<defs>
<filter id="filter0_d_1442_39" x="0.887146" y="16.0458" width="37.0428" height="27.1169" filterUnits="userSpaceOnUse" color-interpolation-filters="sRGB">
<feFlood flood-opacity="0" result="BackgroundImageFix"/>
<feColorMatrix in="SourceAlpha" type="matrix" values="0 0 0 0 0 0 0 0 0 0 0 0 0 0 0 0 0 0 127 0" result="hardAlpha"/>
<feOffset/>
<feGaussianBlur stdDeviation="1"/>
<feColorMatrix type="matrix" values="0 0 0 0 0 0 0 0 0 0 0 0 0 0 0 0 0 0 0.25 0"/>
<feBlend mode="normal" in2="BackgroundImageFix" result="effect1_dropShadow_1442_39"/>
<feBlend mode="normal" in="SourceGraphic" in2="effect1_dropShadow_1442_39" result="shape"/>
</filter>
</defs>
</svg>
