<svg width="45" height="38" viewBox="0 0 45 38" fill="none" xmlns="http://www.w3.org/2000/svg">
<path d="M12.375 23.7916C15.4126 23.7916 17.875 21.4785 17.875 18.625C17.875 15.7715 15.4126 13.4583 12.375 13.4583C9.33743 13.4583 6.875 15.7715 6.875 18.625C6.875 21.4785 9.33743 23.7916 12.375 23.7916Z" stroke="#252323" stroke-width="2" stroke-linecap="round" stroke-linejoin="round"/>
<path d="M22 31.5416C22 27.2611 17.6907 23.7916 12.375 23.7916C7.05925 23.7916 2.75 27.2611 2.75 31.5416M20.625 23.7916C21.544 23.7916 22.4484 23.5752 23.2555 23.1623C24.0626 22.7493 24.7466 22.153 25.2451 21.4277C25.7437 20.7024 26.0408 19.8714 26.1094 19.0104C26.1779 18.1495 26.0158 17.2862 25.6376 16.4993C25.2595 15.7124 24.6775 15.0271 23.9449 14.5059C23.2122 13.9848 22.3521 13.6444 21.4433 13.5159C20.5346 13.3874 19.606 13.4748 18.7424 13.7703C17.8789 14.0658 17.1079 14.5598 16.5 15.2072" stroke="#252323" stroke-width="2" stroke-linecap="round" stroke-linejoin="round"/>
<path d="M30.25 31.5416C30.25 27.261 25.9407 23.7916 20.625 23.7916C19.5154 23.7916 17.7334 23.4132 16.5 22.1964" stroke="#252323" stroke-width="2" stroke-linecap="round" stroke-linejoin="round"/>
<path d="M39 13H34V18C34 18.55 33.55 19 33 19C32.45 19 32 18.55 32 18V13H27C26.45 13 26 12.55 26 12C26 11.45 26.45 11 27 11H32V6C32 5.45 32.45 5 33 5C33.55 5 34 5.45 34 6V11H39C39.55 11 40 11.45 40 12C40 12.55 39.55 13 39 13Z" fill="#252323"/>
</svg>
